<svg width="17" height="16" viewBox="0 0 17 16" fill="none" xmlns="http://www.w3.org/2000/svg">
<path d="M11.9963 4C11.1548 3.9989 10.3412 4.30189 9.70544 4.85315C9.06965 5.40442 8.65452 6.16684 8.53638 7H5.43628C5.31458 6.52867 5.0252 6.11794 4.62231 5.84473C4.21943 5.57152 3.73071 5.45466 3.2478 5.51599C2.7649 5.57733 2.32094 5.81261 1.99915 6.17786C1.67735 6.54311 1.49988 7.01322 1.49988 7.5C1.49988 7.98679 1.67735 8.45689 1.99915 8.82215C2.32094 9.1874 2.7649 9.42267 3.2478 9.48401C3.73071 9.54535 4.21943 9.42848 4.62231 9.15528C5.0252 8.88207 5.31458 8.47133 5.43628 8H8.53638C8.63224 8.66418 8.91704 9.28683 9.35681 9.7937C9.79658 10.3006 10.3727 10.6703 11.0167 10.8589C11.6607 11.0475 12.3454 11.047 12.9891 10.8574C13.6329 10.6679 14.2086 10.2973 14.6476 9.7898C15.0866 9.28227 15.3705 8.65919 15.4653 7.99488C15.5602 7.33056 15.462 6.65298 15.1826 6.04285C14.9032 5.43272 14.4543 4.91578 13.8894 4.55359C13.3245 4.19141 12.6674 3.99922 11.9963 4V4ZM11.9963 10C11.5019 10 11.0185 9.85332 10.6074 9.57862C10.1963 9.30391 9.87586 8.91348 9.68665 8.45667C9.49743 7.99985 9.44797 7.49728 9.54443 7.01233C9.6409 6.52738 9.87888 6.08181 10.2285 5.73218C10.5781 5.38255 11.0237 5.14456 11.5087 5.0481C11.9936 4.95164 12.4962 5.00109 12.953 5.19031C13.4098 5.37953 13.8002 5.69996 14.075 6.11109C14.3497 6.52221 14.4963 7.00555 14.4963 7.5C14.4963 8.16304 14.233 8.79898 13.7642 9.26783C13.2953 9.73667 12.6594 10 11.9963 10V10Z" fill="#75BEFF"/>
</svg>
