<svg width="17" height="16" viewBox="0 0 17 16" fill="none" xmlns="http://www.w3.org/2000/svg">
<path d="M11.8399 9.70998H12.5499L15.2199 7.04005V6.32997L13.8799 5.00001H13.1799L11.3599 6.81007H6.35987V5.56007L8.21986 3.70997V3L6.21986 1H5.49989L1.49988 5.00001V5.70997L3.49988 7.70998H4.20991L5.34986 6.56007V12.35L5.84986 12.85H10.4999V13.37L11.8299 14.71H12.5399L15.2099 12.0401V11.33L13.8699 10H13.1699L11.3099 11.85H6.30989V7.84999H10.4999V8.32997L11.8399 9.70998ZM13.5299 6.06007L14.1599 6.68995L12.1599 8.68996L11.5299 8.06007L13.5299 6.06007ZM13.5299 11.0601L14.1599 11.69L12.1599 13.69L11.5299 13.0601L13.5299 11.0601ZM3.84986 6.65004L2.55988 5.34998L5.84986 2.06006L7.14991 3.34998L3.84986 6.65004Z" fill="#EE9D28"/>
</svg>
