<svg width="17" height="16" viewBox="0 0 17 16" fill="none" xmlns="http://www.w3.org/2000/svg">
<path fill-rule="evenodd" clip-rule="evenodd" d="M2.49988 2L1.49988 3V6L2.49988 7H14.4999L15.4999 6V3L14.4999 2H2.49988ZM2.49988 3H3.49988H13.4999H14.4999V4V5V6H13.4999H3.49988H2.49988V5V4V3ZM1.49988 10L2.49988 9H5.49988L6.49988 10V13L5.49988 14H2.49988L1.49988 13V10ZM3.49988 10H2.49988V11V12V13H3.49988H4.49988H5.49988V12V11V10H4.49988H3.49988ZM10.4999 10L11.4999 9H14.4999L15.4999 10V13L14.4999 14H11.4999L10.4999 13V10ZM12.4999 10H11.4999V11V12V13H12.4999H13.4999H14.4999V12V11V10H13.4999H12.4999Z" fill="#C5C5C5"/>
</svg>
