<svg width="17" height="16" viewBox="0 0 17 16" fill="none" xmlns="http://www.w3.org/2000/svg">
<path fill-rule="evenodd" clip-rule="evenodd" d="M11.4999 6H10.4999V5.5C10.4999 5.22386 10.276 5 9.99989 5H8.9789V10.5C8.9789 10.7761 9.20275 11 9.4789 11H9.9789V12H6.9789V11H7.4789C7.75504 11 7.9789 10.7761 7.9789 10.5V5H6.99989C6.72375 5 6.49989 5.22386 6.49989 5.5V6H5.49989V4H11.4999V6ZM14.4141 8.0481L12.9518 6.58581L13.6589 5.87871L15.4748 7.69454V8.40165L13.707 10.1694L12.9999 9.46231L14.4141 8.0481ZM4.04798 9.4623L2.58568 8.00002L3.9999 6.58581L3.29279 5.8787L1.52502 7.64647V8.35357L3.34087 10.1694L4.04798 9.4623Z" fill="#C5C5C5"/>
</svg>
